<svg xmlns="http://www.w3.org/2000/svg" viewBox="0 0 160 160" role="presentation" aria-hidden="true">
  <g fill="none" stroke="#4B5D3A" stroke-width="1.3" stroke-linecap="round" stroke-linejoin="round">
    <path d="M4 4 C 20 30, 40 50, 70 64 C 100 78, 130 90, 152 110"></path>
    <path d="M30 22 c 6 -2 12 -2 18 2"></path>
    <path d="M64 56 c 8 -2 14 0 20 6"></path>
    <path d="M104 80 c 6 -4 14 -4 22 0"></path>
  </g>
  <g fill="#4B5D3A">
    <path d="M48 24 c 6 0 10 4 10 10 c -6 0 -10 -4 -10 -10 Z"></path>
    <path d="M84 62 c 6 0 10 4 10 10 c -6 0 -10 -4 -10 -10 Z"></path>
    <path d="M126 80 c 6 0 10 4 10 10 c -6 0 -10 -4 -10 -10 Z"></path>
  </g>
  <circle cx="152" cy="110" r="2.6" fill="#B85C3E"></circle>
</svg>