<svg xmlns="http://www.w3.org/2000/svg" viewBox="0 0 320 32" role="presentation" aria-hidden="true">
  <g fill="none" stroke="#4B5D3A" stroke-width="1.2" stroke-linecap="round" stroke-linejoin="round">
    <path d="M4 16 C 30 16, 50 8, 80 16 C 110 24, 140 8, 170 16 C 200 24, 230 8, 260 16 C 280 22, 300 18, 316 16"></path>
    <path d="M70 14 c -3 -4 -4 -8 -2 -12"></path>
    <path d="M158 18 c 3 4 4 8 2 12"></path>
    <path d="M246 14 c -3 -4 -4 -8 -2 -12"></path>
  </g>
  <g fill="#4B5D3A">
    <path d="M68 4 c 4 0 7 3 7 7 c -4 0 -7 -3 -7 -7 Z"></path>
    <path d="M160 30 c -4 0 -7 -3 -7 -7 c 4 0 7 3 7 7 Z"></path>
    <path d="M244 4 c 4 0 7 3 7 7 c -4 0 -7 -3 -7 -7 Z"></path>
  </g>
  <g fill="#B85C3E">
    <circle cx="316" cy="16" r="2"></circle>
    <circle cx="4" cy="16" r="2"></circle>
  </g>
</svg>